<svg width="48" height="56" viewBox="0 0 48 56" fill="none" xmlns="http://www.w3.org/2000/svg">
    <path fill-rule="evenodd" clip-rule="evenodd"
        d="M32.614 4.57664C32.8528 2.44299 31.3401 0.516338 29.2065 0.277497C27.0729 0.0227336 25.1462 1.55132 24.9074 3.68496C24.6208 6.12114 25.0188 9.035 25.5283 12.0285C26.9455 12.4584 28.3148 13.0794 29.5886 13.8118C30.958 10.5795 32.2955 7.37904 32.614 4.57664ZM47.5973 13.9392C46.7534 11.9648 44.4605 11.0731 42.4861 11.917C39.8907 13.0475 37.1997 15.2608 34.4929 17.5377C35.5119 18.5409 36.4673 19.6714 37.2793 20.8974C40.3524 20.5153 43.2981 20.0535 45.5751 19.0663C47.5495 18.1906 48.4571 15.8977 47.5973 13.9392ZM41.053 3.52574C39.3334 2.25192 36.8972 2.60222 35.6234 4.32187C33.6808 6.9332 32.3751 10.8343 30.958 14.6398C31.4357 14.9583 31.8815 15.2767 32.3114 15.6111C32.6299 15.8659 32.9643 16.1365 33.2986 16.4072C36.5469 13.9551 39.9225 11.5667 41.8651 8.95539C43.1389 7.23573 42.7727 4.79955 41.053 3.52574Z"
        fill="#53B175" />
    <path
        d="M33.665 34.7025C32.4708 35.9922 31.197 37.1864 29.8435 38.3488C27.9487 39.9888 26.0221 41.5811 24.0636 43.1097C21.9618 41.82 20.4491 41.1671 20.1943 41.5015C19.9714 41.804 20.8472 42.9186 22.4235 44.3676C17.1372 48.3005 11.5483 51.7717 5.54542 54.6218C4.60598 55.0677 3.61877 55.3861 2.64748 55.7364C2.39272 55.832 2.12203 55.832 2.01057 55.8479C0.48199 56.023 0.020231 55.609 0.083922 54.2078C0.274995 49.845 1.62843 45.7529 3.02963 41.6767C3.41177 40.5621 3.80984 39.4475 4.22383 38.3329C6.34156 39.6226 7.85422 40.2914 8.10898 39.957C8.37967 39.5908 7.10585 38.1259 4.9722 36.2948C6.50079 32.3459 8.20452 28.4608 10.2108 24.7349C14.2233 27.7124 17.79 29.6709 18.1881 29.1295C18.5861 28.5882 15.6404 25.7061 11.5801 22.6967L11.405 22.5694C12.1056 21.3752 12.838 20.181 13.6182 19.0186C14.5895 17.5537 15.7837 16.2162 16.962 14.9105C18.5384 13.175 20.5765 12.5858 22.8534 13.0953C30.1461 14.7195 35.2095 18.9071 37.5979 26.0883C38.0756 27.5532 37.6457 28.9862 36.8973 30.3078C36.3878 31.1995 35.8305 32.0434 35.2095 32.8395C31.3562 30.0212 28.0124 28.206 27.6303 28.7155C27.264 29.2251 29.9231 31.8523 33.665 34.7025Z"
        fill="#F3603F" />
</svg>