<svg width="23" height="21" viewBox="0 0 23 21" fill="none" xmlns="http://www.w3.org/2000/svg">
    <path
        d="M8.9022 20.3518C8.25365 20.3518 7.63166 20.0942 7.17307 19.6356C6.71447 19.177 6.45684 18.555 6.45684 17.9064C6.45684 17.2579 6.71447 16.6359 7.17307 16.1773C7.63166 15.7187 8.25365 15.4611 8.9022 15.4611C9.55075 15.4611 10.1727 15.7187 10.6313 16.1773C11.0899 16.6359 11.3476 17.2579 11.3476 17.9064C11.3476 18.555 11.0899 19.177 10.6313 19.6356C10.1727 20.0942 9.55075 20.3518 8.9022 20.3518ZM17.461 20.3518C16.8124 20.3518 16.1904 20.0942 15.7318 19.6356C15.2732 19.177 15.0156 18.555 15.0156 17.9064C15.0156 17.2579 15.2732 16.6359 15.7318 16.1773C16.1904 15.7187 16.8124 15.4611 17.461 15.4611C18.1095 15.4611 18.7315 15.7187 19.1901 16.1773C19.6487 16.6359 19.9063 17.2579 19.9063 17.9064C19.9063 18.555 19.6487 19.177 19.1901 19.6356C18.7315 20.0942 18.1095 20.3518 17.461 20.3518ZM1.51965 3.1401C1.21442 3.13025 0.924987 3.00208 0.712555 2.78269C0.500123 2.56329 0.381348 2.26988 0.381348 1.96449C0.381348 1.6591 0.500123 1.36569 0.712555 1.14629C0.924987 0.926896 1.21442 0.798724 1.51965 0.788879L2.92696 0.788879C4.02982 0.788879 4.98351 1.55428 5.22315 2.63024L6.75517 9.52861C6.99482 10.6046 7.94851 11.37 9.05137 11.37H18.2362L19.9993 4.31509H8.5733C8.27095 4.3013 7.98555 4.17148 7.77646 3.95263C7.56738 3.73379 7.4507 3.44277 7.4507 3.1401C7.4507 2.83743 7.56738 2.54641 7.77646 2.32756C7.98555 2.10872 8.27095 1.9789 8.5733 1.9651H19.9993C20.3567 1.96499 20.7094 2.04638 21.0307 2.20308C21.352 2.35977 21.6333 2.58764 21.8532 2.86938C22.0732 3.15111 22.226 3.47928 22.3001 3.82895C22.3742 4.17862 22.3676 4.54058 22.2808 4.88731L20.5177 11.9397C20.3906 12.4486 20.097 12.9004 19.6836 13.2232C19.2701 13.546 18.7607 13.7213 18.2362 13.7212H9.05137C7.98127 13.7213 6.94313 13.3565 6.10839 12.6869C5.27365 12.0174 4.69225 11.0831 4.4602 10.0385L2.92696 3.1401H1.51965Z"
        fill="#53B175" />
</svg>