<svg width="29" height="19" viewBox="0 0 29 19" fill="none" xmlns="http://www.w3.org/2000/svg">
    <path
        d="M18.5166 14.0713C19.3045 14.0713 20.0848 13.9161 20.8127 13.6146C21.5407 13.313 22.2021 12.8711 22.7593 12.3139C23.3164 11.7568 23.7584 11.0953 24.0599 10.3674C24.3614 9.63943 24.5166 8.85921 24.5166 8.07128C24.5166 7.28335 24.3614 6.50314 24.0599 5.77518C23.7584 5.04723 23.3164 4.38579 22.7593 3.82864C22.2021 3.27149 21.5407 2.82953 20.8127 2.52801C20.0848 2.22648 19.3045 2.07128 18.5166 2.07128C16.9253 2.07128 15.3992 2.70342 14.274 3.82864C13.1488 4.95386 12.5166 6.47998 12.5166 8.07128C12.5166 9.66258 13.1488 11.1887 14.274 12.3139C15.3992 13.4391 16.9253 14.0713 18.5166 14.0713ZM24.8366 12.9773L28.4166 16.5573C28.5121 16.6496 28.5882 16.76 28.6405 16.882C28.6928 17.0041 28.7203 17.1353 28.7214 17.2681C28.7224 17.4009 28.697 17.5325 28.6467 17.6554C28.5963 17.7783 28.5219 17.8899 28.428 17.9837C28.334 18.0775 28.2223 18.1517 28.0994 18.2019C27.9765 18.2521 27.8448 18.2773 27.712 18.276C27.5792 18.2748 27.448 18.2471 27.3261 18.1946C27.2041 18.1421 27.0938 18.0659 27.0016 17.9703L23.4216 14.3903C21.8141 15.6381 19.7914 16.2265 17.7654 16.0355C15.7393 15.8445 13.8622 14.8886 12.5162 13.3623C11.1701 11.8361 10.4563 9.85423 10.52 7.82021C10.5838 5.78618 11.4203 3.85291 12.8593 2.41393C14.2982 0.974952 16.2315 0.13845 18.2655 0.0747088C20.2996 0.0109677 22.2814 0.72478 23.8077 2.07083C25.3339 3.41689 26.2898 5.294 26.4808 7.32004C26.6718 9.34608 26.0835 11.3687 24.8356 12.9763L24.8366 12.9773Z"
        fill="#53B175" />
    <rect x="0.37207" y="0.0707798" width="8.85499" height="2.39923" rx="1.19961" fill="#53B175" />
    <rect x="0.37207" y="7.50897" width="6.46414" height="2.39923" rx="1.19961" fill="#53B175" />
    <rect x="0.37207" y="14.9476" width="8.85499" height="2.39923" rx="1.19961" fill="#53B175" />
</svg>