<svg width="25" height="24" viewBox="0 0 25 24" fill="none" xmlns="http://www.w3.org/2000/svg">
<g id="bookmark 1">
<path id="Vector" d="M4.73817 11.0097L12.5623 18.8338L20.3864 11.0097C21.0781 10.318 21.4667 9.37974 21.4667 8.40146C21.4667 7.42319 21.0781 6.48497 20.3864 5.79323C20.0439 5.45071 19.6372 5.17901 19.1897 4.99364C18.7422 4.80827 18.2625 4.71286 17.7781 4.71286C16.7999 4.71286 15.8616 5.10148 15.1699 5.79323L12.5623 8.40085L9.95465 5.79446C9.26114 5.11199 8.32605 4.73121 7.35306 4.73505C6.38008 4.7389 5.44803 5.12706 4.75994 5.81499C4.07184 6.50292 3.68346 7.43488 3.67939 8.40787C3.67531 9.38085 4.05587 10.316 4.73817 11.0097ZM11.6931 4.05358L12.5623 4.92279L13.4315 4.05358C14.0014 3.47866 14.6792 3.02197 15.4261 2.70973C16.173 2.39748 16.9742 2.23583 17.7837 2.23406C18.5932 2.23229 19.3951 2.39042 20.1434 2.6994C20.8916 3.00837 21.5715 3.46209 22.1439 4.0345C22.7163 4.60692 23.17 5.28676 23.479 6.035C23.7879 6.78324 23.9461 7.58514 23.9443 8.39466C23.9425 9.20418 23.7809 10.0054 23.4686 10.7523C23.1564 11.4991 22.6997 12.177 22.1248 12.7469L13.4327 21.4402C13.3185 21.5545 13.1829 21.6452 13.0337 21.7071C12.8844 21.7689 12.7245 21.8008 12.5629 21.8008C12.4013 21.8008 12.2413 21.7689 12.0921 21.7071C11.9428 21.6452 11.8072 21.5545 11.6931 21.4402L2.99976 12.7481C2.41702 12.18 1.95288 11.5019 1.63426 10.7531C1.31565 10.0042 1.14889 9.19956 1.14368 8.38577C1.13847 7.57198 1.29489 6.76525 1.60389 6.01238C1.91288 5.25951 2.3683 4.57549 2.94371 4C3.51912 3.42451 4.20307 2.969 4.9559 2.6599C5.70872 2.35079 6.51543 2.19425 7.32923 2.19935C8.14302 2.20445 8.9477 2.37109 9.6966 2.6896C10.4455 3.00811 11.1237 3.47215 11.6918 4.05481L11.6931 4.05358Z" fill="#181725"/>
</g>
</svg>
