<svg width="24" height="20" viewBox="0 0 24 20" fill="none" xmlns="http://www.w3.org/2000/svg">
    <path
        d="M4.43568 8.84344L12.2598 16.6675L20.0839 8.84344C20.7756 8.15169 21.1643 7.21348 21.1643 6.2352C21.1643 5.25693 20.7756 4.31871 20.0839 3.62697C19.7414 3.28445 19.3347 3.01275 18.8872 2.82738C18.4397 2.64201 17.96 2.5466 17.4756 2.5466C16.4974 2.5466 15.5592 2.93522 14.8674 3.62697L12.2598 6.23459L9.65216 3.6282C8.95865 2.94573 8.02356 2.56495 7.05057 2.56879C6.07759 2.57264 5.14554 2.9608 4.45745 3.64873C3.76935 4.33666 3.38097 5.26862 3.3769 6.24161C3.37282 7.21459 3.75338 8.14977 4.43568 8.84344ZM11.3906 1.88732L12.2598 2.75653L13.129 1.88732C13.6989 1.3124 14.3767 0.855711 15.1236 0.543466C15.8705 0.23122 16.6717 0.0695713 17.4812 0.0677986C18.2907 0.066026 19.0926 0.224165 19.8409 0.533136C20.5891 0.842107 21.269 1.29583 21.8414 1.86824C22.4138 2.44066 22.8675 3.12051 23.1765 3.86874C23.4855 4.61698 23.6436 5.41888 23.6418 6.2284C23.6401 7.03792 23.4784 7.83912 23.1662 8.58599C22.8539 9.33287 22.3972 10.0107 21.8223 10.5806L13.1302 19.2739C13.016 19.3882 12.8804 19.4789 12.7312 19.5408C12.5819 19.6027 12.422 19.6345 12.2604 19.6345C12.0988 19.6345 11.9388 19.6027 11.7896 19.5408C11.6403 19.4789 11.5048 19.3882 11.3906 19.2739L2.69727 10.5819C2.11453 10.0138 1.65039 9.33566 1.33177 8.58681C1.01316 7.83796 0.846405 7.0333 0.841191 6.21951C0.835977 5.40572 0.992404 4.59899 1.3014 3.84612C1.61039 3.09325 2.06581 2.40923 2.64122 1.83374C3.21663 1.25825 3.90058 0.802737 4.65341 0.493635C5.40623 0.184534 6.21294 0.0279921 7.02674 0.0330911C7.84053 0.0381901 8.64521 0.204828 9.39411 0.523339C10.143 0.84185 10.8212 1.30589 11.3893 1.88855L11.3906 1.88732Z"
        fill="#53B175" />
</svg>