<svg width="24" height="25" viewBox="0 0 24 25" fill="none" xmlns="http://www.w3.org/2000/svg">
    <path
        d="M23.8624 12.7673C23.8624 11.778 23.7843 11.056 23.6152 10.3074H12.6201V14.7727H19.074C18.9439 15.8824 18.2413 17.5536 16.6798 18.6765L16.6579 18.826L20.1344 21.5932L20.3752 21.6179C22.5872 19.5189 23.8624 16.4305 23.8624 12.7673Z"
        fill="white" />
    <path
        d="M12.6202 24.5323C15.782 24.5323 18.4364 23.4627 20.3753 21.6178L16.6799 18.6765C15.691 19.3851 14.3638 19.8797 12.6202 19.8797C9.52337 19.8797 6.89498 17.7808 5.95803 14.8796L5.8207 14.8916L2.20584 17.766L2.15857 17.9011C4.08432 21.8316 8.03995 24.5323 12.6202 24.5323Z"
        fill="white" />
    <path
        d="M5.958 14.8796C5.71078 14.1309 5.56771 13.3287 5.56771 12.4999C5.56771 11.6709 5.71078 10.8688 5.945 10.1201L5.93845 9.96064L2.27829 7.04004L2.15854 7.09857C1.36485 8.72965 0.909424 10.5613 0.909424 12.4999C0.909424 14.4384 1.36485 16.27 2.15854 17.9011L5.958 14.8796Z"
        fill="white" />
    <path
        d="M12.6206 5.12005C14.8195 5.12005 16.3029 6.09601 17.1487 6.9116L20.4537 3.59597C18.4239 1.65741 15.7824 0.467529 12.6206 0.467529C8.04032 0.467529 4.08468 3.16813 2.15894 7.0987L5.94539 10.1202C6.89535 7.21907 9.52374 5.12005 12.6206 5.12005Z"
        fill="white" />
</svg>