<svg width="225" height="172" viewBox="0 0 225 172" fill="none" xmlns="http://www.w3.org/2000/svg">
<g id="illustration">
<g id="Group">
<path id="Vector" d="M223.009 158.082L172.58 91.9296C169.566 87.9771 164.886 85.6597 159.916 85.6597H64.9015C59.9323 85.6597 55.2516 87.9771 52.238 91.9296L1.81317 158.082C-2.42783 163.646 1.53837 171.661 8.53649 171.661H216.286C223.284 171.657 227.25 163.642 223.009 158.082Z" fill="url(#paint0_linear_1_507)"/>
<path id="Vector_2" d="M4.65256 158.219C3.3198 158.219 2.08322 158.613 1.04358 159.286C-1.85092 164.732 2.03285 171.657 8.53633 171.657H216.286C222.789 171.657 226.673 164.732 223.779 159.286C222.739 158.613 221.502 158.219 220.17 158.219H4.65256Z" fill="#C9CDD3"/>
<path id="Vector_3" d="M90.7642 119.679L126.845 158.219H112.097L80.1662 124.319L90.7642 119.679Z" fill="white"/>
<path id="Vector_4" d="M165.82 86.8047C163.965 86.0628 161.968 85.6643 159.921 85.6643H141.592L14.6232 141.278L1.81315 158.082C1.61621 158.343 1.44217 158.609 1.2773 158.874L165.82 86.8047Z" fill="#FEE379"/>
<path id="Vector_5" d="M1.28183 158.874L80.1663 124.319L112.097 158.219L1.28183 158.874Z" fill="#86ADFF"/>
<path id="Vector_6" d="M14.6231 141.278L141.592 85.6643H64.9015C59.9323 85.6643 55.2516 87.9817 52.238 91.9342L14.6231 141.278Z" fill="#69CA9F"/>
<path id="Vector_7" d="M190.583 115.548L186.686 110.437L162.944 120.815L141.198 97.5858L130.742 102.166L152.478 125.386L112.409 142.9L116.998 147.704L157.003 130.222L183.214 158.219H197.957L167.469 125.647L190.583 115.548Z" fill="#C9CDD3"/>
</g>
<path id="Vector_8" opacity="0.3" d="M174.783 94.8195L172.58 91.9296C169.566 87.9771 164.886 85.6597 159.916 85.6597H112.409V121.988L174.783 94.8195Z" fill="url(#paint1_linear_1_507)"/>
<g id="Group_2">
<path id="Vector_9" d="M106.982 1.33422C88.8362 3.76158 74.9636 18.3028 73.2736 36.5309C72.1103 49.0707 76.8459 60.5296 85.0257 68.4712C88.1767 71.5306 91.1032 74.7961 93.7871 78.2402C101.403 88.0091 106.62 99.4314 109.318 111.518L111.488 121.246C111.585 121.681 111.969 121.988 112.414 121.988C112.858 121.988 113.243 121.681 113.339 121.246L115.642 110.904C118.262 99.1521 123.286 88.0366 130.642 78.5058C133.266 75.1075 136.142 71.9062 139.289 68.9613C146.942 61.7937 151.728 51.5988 151.728 40.2818C151.723 16.7823 131.113 -1.8992 106.982 1.33422Z" fill="url(#paint2_linear_1_507)"/>
<path id="Vector_10" d="M121.027 51.9925C125.786 47.2332 125.786 39.5168 121.027 34.7575C116.267 29.9981 108.551 29.9981 103.792 34.7575C99.0323 39.5168 99.0323 47.2332 103.792 51.9925C108.551 56.7519 116.267 56.7519 121.027 51.9925Z" fill="white"/>
</g>
</g>
<defs>
<linearGradient id="paint0_linear_1_507" x1="17.6003" y1="72.1646" x2="179.824" y2="207.009" gradientUnits="userSpaceOnUse">
<stop stop-color="#F6F8FF"/>
<stop offset="1" stop-color="#DEE0ED"/>
</linearGradient>
<linearGradient id="paint1_linear_1_507" x1="186.811" y1="63.873" x2="104.903" y2="113.851" gradientUnits="userSpaceOnUse">
<stop/>
<stop offset="1"/>
</linearGradient>
<linearGradient id="paint2_linear_1_507" x1="123.654" y1="82.7482" x2="94.9092" y2="-14.004" gradientUnits="userSpaceOnUse">
<stop stop-color="#5565EE"/>
<stop offset="0.3091" stop-color="#5F75FF"/>
<stop offset="0.5137" stop-color="#6E89FA"/>
<stop offset="0.7638" stop-color="#6E89FA"/>
<stop offset="1" stop-color="#7D99FD"/>
</linearGradient>
</defs>
</svg>
