<svg width="25" height="25" viewBox="0 0 25 25" fill="none" xmlns="http://www.w3.org/2000/svg">
<g id="store 1">
<path id="Vector" d="M9.75904 9.75407C10.289 10.2291 10.991 10.5181 11.759 10.5181H13.759C14.4972 10.5191 15.2096 10.2469 15.759 9.75407H9.75904ZM9.75904 9.75407C9.20957 10.2469 8.49717 10.5191 7.75904 10.5181L9.75904 9.75407ZM8.80904 4.51807V4.46807H8.75904H5.75904C5.48056 4.46807 5.21349 4.57869 5.01657 4.7756C4.81966 4.97252 4.70904 5.23959 4.70904 5.51807V7.51807C4.70904 7.79654 4.81966 8.06362 5.01657 8.26053C5.21349 8.45744 5.48056 8.56807 5.75904 8.56807H7.75904C8.03751 8.56807 8.30458 8.45744 8.5015 8.26053C8.69841 8.06362 8.80904 7.79654 8.80904 7.51807V4.51807ZM5.76904 10.4681H5.71904V10.5181V20.4831V20.5331H5.76904H7.75904H7.80904V20.4831V15.5181C7.80904 15.0009 8.01448 14.5049 8.38018 14.1392C8.74587 13.7735 9.24186 13.5681 9.75904 13.5681H11.759C12.2762 13.5681 12.7722 13.7735 13.1379 14.1392C13.5036 14.5049 13.709 15.0009 13.709 15.5181V20.4831V20.5331H13.759H19.772H19.822V20.4831V10.5181V10.4681H19.772H17.759C17.0038 10.4681 16.3136 10.1839 15.7924 9.71683L15.759 9.68691L15.7256 9.71685C15.1854 10.2015 14.4849 10.4691 13.7591 10.4681H13.759H11.759C11.0038 10.4681 10.3136 10.1839 9.79241 9.71683L9.75902 9.68691L9.72565 9.71685C9.18538 10.2015 8.48489 10.4691 7.75911 10.4681H7.75904H5.76904ZM3.7672 9.69519C3.47076 9.42442 3.23273 9.09573 3.06794 8.72925C2.89671 8.34848 2.80845 7.93564 2.80904 7.51814V7.51807V5.51807C2.80904 4.73568 3.11984 3.98533 3.67307 3.4321C4.2263 2.87887 4.97665 2.56807 5.75904 2.56807H19.759C20.5414 2.56807 21.2918 2.87887 21.845 3.4321C22.3982 3.98533 22.709 4.73568 22.709 5.51807V7.51807C22.709 8.3854 22.3354 9.1661 21.7385 9.70598L21.722 9.72087V9.74307V20.4831C21.722 21.0002 21.5166 21.4962 21.1509 21.8619C20.7852 22.2276 20.2892 22.4331 19.772 22.4331H12.132V22.4322L12.1227 22.4339C12.0028 22.4566 11.8811 22.468 11.759 22.4681H9.75904C9.63701 22.468 9.51524 22.4566 9.39533 22.4339L9.39549 22.4331H9.38604H5.77004C5.25286 22.4331 4.75687 22.2276 4.39118 21.8619C4.02548 21.4962 3.82004 21.0002 3.82004 20.4831V9.76307V9.64237L3.7672 9.69519ZM11.809 15.5181V15.4681H11.759H9.75904H9.70904V15.5181V20.4831V20.5331H9.75904H11.759V20.4841H11.809V20.4831V20.4331V15.5181ZM14.809 4.51807V4.46807H14.759H10.759H10.709V4.51807V7.51807C10.709 7.79654 10.8197 8.06362 11.0166 8.26053C11.2135 8.45744 11.4806 8.56807 11.759 8.56807H13.759C14.0375 8.56807 14.3046 8.45744 14.5015 8.26053C14.6984 8.06362 14.809 7.79654 14.809 7.51807V4.51807ZM16.759 4.46807H16.709V4.51807V7.51807C16.709 7.79654 16.8197 8.06362 17.0166 8.26053C17.2135 8.45744 17.4806 8.56807 17.759 8.56807H19.759C20.0375 8.56807 20.3046 8.45744 20.5015 8.26053C20.6984 8.06362 20.809 7.79654 20.809 7.51807V5.51807C20.809 5.23959 20.6984 4.97252 20.5015 4.7756C20.3046 4.57869 20.0375 4.46807 19.759 4.46807H16.759ZM16.759 13.5681H17.759C18.011 13.5681 18.2526 13.6682 18.4308 13.8463C18.6089 14.0245 18.709 14.2661 18.709 14.5181V17.5181C18.709 17.77 18.6089 18.0117 18.4308 18.1898C18.2526 18.368 18.011 18.4681 17.759 18.4681H16.759C16.5071 18.4681 16.2654 18.368 16.0873 18.1898C15.9091 18.0117 15.809 17.77 15.809 17.5181V14.5181C15.809 14.2661 15.9091 14.0245 16.0873 13.8463C16.2654 13.6682 16.5071 13.5681 16.759 13.5681Z" fill="#53B175" stroke="white" stroke-width="0.1"/>
</g>
</svg>
