<svg width="25" height="25" viewBox="0 0 25 25" fill="none" xmlns="http://www.w3.org/2000/svg">
    <path
        d="M8.89786 12.4218C9.03869 12.3693 9.19013 12.3421 9.34324 12.3416C9.49635 12.3411 9.64802 12.3674 9.78928 12.419C9.93053 12.4706 10.0585 12.5463 10.1657 12.6418C10.2728 12.7373 10.3569 12.8506 10.4131 12.9749C10.4692 13.0993 10.4962 13.2322 10.4925 13.3659C10.4888 13.4995 10.4544 13.6311 10.3914 13.7529C10.3284 13.8748 10.2381 13.9844 10.1258 14.0752C10.0135 14.166 9.88143 14.2363 9.73747 14.2818C8.97179 14.5452 8.31463 15.0037 7.8515 15.5976C7.38837 16.1915 7.14071 16.8933 7.14074 17.6118V19.3518C7.14074 19.617 7.26143 19.8714 7.47624 20.0589C7.69105 20.2465 7.9824 20.3518 8.28619 20.3518H17.4498C17.7535 20.3518 18.0449 20.2465 18.2597 20.0589C18.4745 19.8714 18.5952 19.617 18.5952 19.3518V17.7048C18.5953 16.9633 18.3373 16.2392 17.8554 15.6286C17.3734 15.018 16.6903 14.5497 15.8965 14.2858C15.7517 14.2419 15.6184 14.1731 15.5046 14.0834C15.3908 13.9937 15.2987 13.885 15.2339 13.7637C15.1691 13.6424 15.1329 13.5109 15.1274 13.3771C15.1218 13.2434 15.1471 13.11 15.2017 12.9849C15.2563 12.8598 15.3392 12.7456 15.4453 12.649C15.5514 12.5524 15.6786 12.4753 15.8195 12.4224C15.9603 12.3695 16.1119 12.3419 16.2653 12.3411C16.4186 12.3403 16.5705 12.3664 16.7121 12.4178C17.9396 12.826 18.996 13.5501 19.7414 14.4943C20.4868 15.4385 20.886 16.5581 20.8861 17.7048V19.3518C20.8861 20.1475 20.524 20.9105 19.8796 21.4731C19.2352 22.0357 18.3611 22.3518 17.4498 22.3518H8.28619C7.37482 22.3518 6.50077 22.0357 5.85633 21.4731C5.2119 20.9105 4.84985 20.1475 4.84985 19.3518V17.6118C4.85001 16.492 5.23619 15.3981 5.95814 14.4724C6.6801 13.5468 7.70442 12.8323 8.89786 12.4218ZM12.868 2.35181C14.0831 2.35181 15.2485 2.77323 16.1078 3.52338C16.967 4.27352 17.4498 5.29094 17.4498 6.35181V8.35181C17.4498 9.41267 16.967 10.4301 16.1078 11.1802C15.2485 11.9304 14.0831 12.3518 12.868 12.3518C11.6528 12.3518 10.4874 11.9304 9.62816 11.1802C8.76891 10.4301 8.28619 9.41267 8.28619 8.35181V6.35181C8.28619 5.29094 8.76891 4.27352 9.62816 3.52338C10.4874 2.77323 11.6528 2.35181 12.868 2.35181ZM12.868 4.35181C12.2604 4.35181 11.6777 4.56252 11.2481 4.93759C10.8184 5.31267 10.5771 5.82137 10.5771 6.35181V8.35181C10.5771 8.88224 10.8184 9.39095 11.2481 9.76602C11.6777 10.1411 12.2604 10.3518 12.868 10.3518C13.4756 10.3518 14.0583 10.1411 14.4879 9.76602C14.9175 9.39095 15.1589 8.88224 15.1589 8.35181V6.35181C15.1589 5.82137 14.9175 5.31267 14.4879 4.93759C14.0583 4.56252 13.4756 4.35181 12.868 4.35181Z"
        fill="#53B175" />
</svg>