<svg width="25" height="25" viewBox="0 0 25 25" fill="none" xmlns="http://www.w3.org/2000/svg">
<g id="user 1">
<path id="Vector" d="M8.66873 12.5881C8.80956 12.5356 8.961 12.5083 9.11411 12.5078C9.26722 12.5074 9.41889 12.5337 9.56015 12.5853C9.70141 12.6368 9.82939 12.7126 9.93653 12.8081C10.0437 12.9036 10.1278 13.0168 10.1839 13.1412C10.2401 13.2656 10.2671 13.3985 10.2634 13.5321C10.2596 13.6657 10.2253 13.7974 10.1623 13.9192C10.0993 14.041 10.009 14.1506 9.89667 14.2415C9.78435 14.3323 9.6523 14.4025 9.50834 14.4481C8.74266 14.7114 8.0855 15.1699 7.62237 15.7638C7.15924 16.3577 6.91158 17.0596 6.91162 17.7781V19.5181C6.91162 19.7833 7.0323 20.0376 7.24711 20.2252C7.46192 20.4127 7.75327 20.5181 8.05706 20.5181H17.2206C17.5244 20.5181 17.8158 20.4127 18.0306 20.2252C18.2454 20.0376 18.3661 19.7833 18.3661 19.5181V17.8711C18.3662 17.1295 18.1082 16.4055 17.6262 15.7949C17.1443 15.1843 16.4612 14.716 15.6674 14.4521C15.5226 14.4082 15.3893 14.3394 15.2754 14.2497C15.1616 14.16 15.0696 14.0513 15.0048 13.9299C14.94 13.8086 14.9038 13.6772 14.8982 13.5434C14.8927 13.4096 14.918 13.2763 14.9726 13.1512C15.0272 13.0261 15.11 12.9119 15.2161 12.8152C15.3223 12.7186 15.4495 12.6416 15.5904 12.5887C15.7312 12.5358 15.8828 12.5081 16.0361 12.5074C16.1895 12.5066 16.3414 12.5326 16.483 12.5841C17.7104 12.9922 18.7669 13.7164 19.5123 14.6606C20.2577 15.6047 20.6569 16.7244 20.657 17.8711V19.5181C20.657 20.3137 20.2949 21.0768 19.6505 21.6394C19.006 22.202 18.132 22.5181 17.2206 22.5181H8.05706C7.14569 22.5181 6.27165 22.202 5.62721 21.6394C4.98277 21.0768 4.62073 20.3137 4.62073 19.5181V17.7781C4.62089 16.6582 5.00706 15.5643 5.72902 14.6387C6.45097 13.7131 7.47529 12.9985 8.66873 12.5881ZM12.6388 2.51807C13.854 2.51807 15.0194 2.93949 15.8787 3.68964C16.7379 4.43978 17.2206 5.4572 17.2206 6.51807V8.51807C17.2206 9.57893 16.7379 10.5963 15.8787 11.3465C15.0194 12.0966 13.854 12.5181 12.6388 12.5181C11.4237 12.5181 10.2583 12.0966 9.39904 11.3465C8.53979 10.5963 8.05706 9.57893 8.05706 8.51807V6.51807C8.05706 5.4572 8.53979 4.43978 9.39904 3.68964C10.2583 2.93949 11.4237 2.51807 12.6388 2.51807ZM12.6388 4.51807C12.0313 4.51807 11.4486 4.72878 11.0189 5.10385C10.5893 5.47893 10.348 5.98763 10.348 6.51807V8.51807C10.348 9.0485 10.5893 9.55721 11.0189 9.93228C11.4486 10.3074 12.0313 10.5181 12.6388 10.5181C13.2464 10.5181 13.8291 10.3074 14.2588 9.93228C14.6884 9.55721 14.9297 9.0485 14.9297 8.51807V6.51807C14.9297 5.98763 14.6884 5.47893 14.2588 5.10385C13.8291 4.72878 13.2464 4.51807 12.6388 4.51807Z" fill="#181725"/>
</g>
</svg>
